# xmcd
#
# Track frame offsets: 
#        150
#        12137
#        29702
#        41918
#        53811
#        67598
#        80230
#        92633
#        105364
#        115061
#        124868
#        134602
#        150163
#        161173
#        173903
#
# Disc length: 2526 seconds
#
# Revision: 2
# Processed by: cddbd v1.5.2PL0 Copyright (c) Steve Scherf et al.
# Submitted via: ExactAudioCopy v0.99pb3
#
DISCID=bf09dc0f
DTITLE=Varius - Blues Masters - Originals
DYEAR=2007
DGENRE=Blues
TTITLE0=Boom boom - J L Hooker
TTITLE1=Mannish boy - Muddy Waters
TTITLE2=The sky is crying - Elmore James
TTITLE3=Payng the cost to the boss - BB King
TTITLE4=Walking the blues - Mephis Slim
TTITLE5=Life I use to live - Lightning Hopkins 
TTITLE6=Ninety nine - SB Williamson
TTITLE7=Shame Shame Shame - Jimmy Reed
TTITLE8=Tribute to Elmore - Eric Clapton and Jimmy Page
TTITLE9=How Long - Leadbelly
TTITLE10=Money - Buddy Guy
TTITLE11=Born under a bad sign - Albert King
TTITLE12=Baby please don´t go - john Lee hooker
TTITLE13=(I´m your) Hoochie Coochie Man - Muddy Waters
TTITLE14=Forty Forur Blues - Memphis Slim
EXTD=
EXTT0=
EXTT1=
EXTT2=
EXTT3=
EXTT4=
EXTT5=
EXTT6=
EXTT7=
EXTT8=
EXTT9=
EXTT10=
EXTT11=
EXTT12=
EXTT13=
EXTT14=
PLAYORDER=
